<svg id="svg" version="1.1" xmlns="http://www.w3.org/2000/svg" xmlns:xlink="http://www.w3.org/1999/xlink" viewBox="0, 0, 400,130.56603773584905"><g id="svgg"><path id="path0" d="M12.292 0.459 L 0.000 0.502 0.000 44.346 C -0.000 81.867,0.034 88.224,0.235 88.426 C 0.491 88.681,0.405 89.333,0.115 89.333 C 0.017 89.333,0.072 89.433,0.239 89.555 C 0.491 89.739,0.524 89.920,0.435 90.649 C 0.365 91.222,0.387 91.487,0.498 91.418 C 0.591 91.361,0.667 91.435,0.667 91.583 C 0.667 91.732,0.742 91.807,0.833 91.750 C 1.070 91.604,1.040 91.890,0.792 92.158 C 0.666 92.293,0.659 92.340,0.774 92.275 C 0.879 92.217,1.010 92.285,1.064 92.426 C 1.121 92.574,1.092 92.640,0.998 92.582 C 0.788 92.452,0.781 93.048,0.991 93.258 C 1.135 93.403,1.358 94.285,1.380 94.792 C 1.385 94.906,1.487 95.000,1.608 95.000 C 1.883 95.000,2.067 95.693,1.918 96.164 C 1.834 96.427,1.926 96.631,2.275 96.955 C 2.534 97.194,2.661 97.418,2.559 97.453 C 2.346 97.524,2.646 98.330,2.886 98.332 C 2.961 98.333,2.977 98.475,2.922 98.649 C 2.862 98.840,2.939 99.083,3.119 99.263 C 3.283 99.427,3.421 99.641,3.427 99.739 C 3.448 100.125,3.698 100.667,3.854 100.667 C 3.945 100.667,3.973 100.742,3.917 100.833 C 3.860 100.925,3.890 101.000,3.983 101.000 C 4.076 101.000,4.200 101.256,4.258 101.569 C 4.317 101.882,4.508 102.291,4.683 102.479 C 4.857 102.666,5.000 102.926,5.000 103.057 C 5.000 103.330,5.495 104.337,5.504 104.083 C 5.507 103.992,5.587 104.049,5.681 104.210 C 5.775 104.371,5.812 104.566,5.765 104.643 C 5.717 104.720,5.855 104.878,6.071 104.993 C 6.337 105.136,6.496 105.406,6.564 105.832 C 6.629 106.239,6.769 106.488,6.961 106.538 C 7.125 106.581,7.271 106.783,7.287 106.988 C 7.302 107.193,7.506 107.612,7.741 107.919 C 7.975 108.226,8.167 108.558,8.167 108.656 C 8.167 108.753,8.274 108.833,8.405 108.833 C 8.537 108.833,8.692 108.983,8.750 109.167 C 8.808 109.350,9.001 109.578,9.178 109.673 C 9.355 109.768,9.500 109.996,9.500 110.180 C 9.500 110.365,9.686 110.689,9.914 110.900 C 10.142 111.111,10.279 111.332,10.220 111.392 C 10.160 111.451,10.199 111.500,10.306 111.500 C 10.413 111.500,10.500 111.612,10.500 111.750 C 10.500 111.888,10.607 112.000,10.739 112.000 C 10.870 112.000,11.025 112.150,11.083 112.333 C 11.142 112.517,11.262 112.667,11.350 112.667 C 11.571 112.667,12.575 113.688,12.716 114.056 C 12.779 114.220,12.896 114.315,12.974 114.266 C 13.053 114.217,13.202 114.362,13.305 114.589 C 13.408 114.815,13.602 115.000,13.735 115.000 C 13.868 115.000,14.001 115.169,14.030 115.375 C 14.059 115.581,14.177 115.750,14.292 115.750 C 14.406 115.750,14.497 115.809,14.494 115.881 C 14.484 116.099,14.959 116.500,15.227 116.500 C 15.365 116.500,15.525 116.650,15.583 116.833 C 15.642 117.017,15.798 117.167,15.932 117.167 C 16.066 117.167,16.246 117.354,16.333 117.583 C 16.420 117.812,16.606 118.000,16.746 118.000 C 16.886 118.000,17.000 118.110,17.000 118.244 C 17.000 118.509,17.561 118.883,17.720 118.724 C 17.773 118.671,17.866 118.824,17.927 119.064 C 17.999 119.353,18.149 119.500,18.371 119.500 C 18.624 119.500,18.684 119.582,18.618 119.834 C 18.570 120.017,18.586 120.133,18.652 120.092 C 18.719 120.051,18.969 120.119,19.209 120.243 C 19.448 120.367,19.681 120.430,19.727 120.384 C 19.773 120.338,19.908 120.458,20.029 120.650 C 20.149 120.843,20.379 121.000,20.540 121.000 C 20.701 121.000,20.843 121.075,20.854 121.167 C 20.866 121.258,20.884 121.420,20.896 121.526 C 20.907 121.632,21.056 121.739,21.226 121.764 C 21.397 121.789,21.697 121.958,21.893 122.140 C 22.089 122.322,22.422 122.496,22.632 122.527 C 22.841 122.558,23.009 122.641,23.003 122.712 C 22.987 122.920,23.405 123.305,23.551 123.217 C 23.625 123.172,24.000 123.346,24.385 123.604 C 24.769 123.861,25.177 124.053,25.292 124.029 C 25.406 124.005,25.500 124.058,25.500 124.147 C 25.500 124.447,26.020 124.833,26.425 124.833 C 26.662 124.833,26.931 124.994,27.083 125.227 C 27.262 125.499,27.471 125.606,27.764 125.574 C 28.010 125.546,28.225 125.626,28.278 125.763 C 28.328 125.892,28.435 125.957,28.517 125.906 C 28.600 125.855,28.667 125.890,28.667 125.983 C 28.667 126.076,28.927 126.200,29.244 126.260 C 29.632 126.333,29.859 126.486,29.936 126.726 C 30.047 127.076,30.052 127.077,30.180 126.750 C 30.290 126.468,30.312 126.461,30.322 126.708 C 30.330 126.918,30.485 127.007,30.875 127.025 C 31.173 127.039,31.492 127.068,31.583 127.089 C 31.675 127.111,31.844 127.137,31.958 127.147 C 32.073 127.158,32.167 127.269,32.167 127.395 C 32.167 127.524,32.496 127.716,32.921 127.835 C 33.336 127.951,33.713 128.107,33.760 128.182 C 33.806 128.257,33.962 128.274,34.105 128.218 C 34.249 128.163,34.423 128.209,34.492 128.321 C 34.621 128.530,35.178 128.659,36.122 128.699 C 36.501 128.715,36.615 128.778,36.506 128.910 C 36.402 129.035,36.444 129.108,36.633 129.129 C 36.789 129.147,37.067 129.195,37.250 129.235 C 37.433 129.275,37.798 129.314,38.059 129.321 C 38.419 129.330,38.511 129.397,38.436 129.592 C 38.377 129.746,38.407 129.808,38.509 129.744 C 38.604 129.686,38.772 129.710,38.882 129.798 C 38.993 129.885,39.402 129.969,39.792 129.982 C 41.143 130.031,41.333 130.068,41.333 130.283 C 41.333 130.573,59.937 130.607,60.033 130.317 C 60.067 130.216,60.467 130.094,60.922 130.045 C 61.377 129.996,61.843 129.883,61.956 129.793 C 62.070 129.703,62.335 129.673,62.546 129.726 C 62.757 129.779,63.144 129.711,63.406 129.575 C 63.668 129.439,64.152 129.299,64.483 129.264 C 65.243 129.183,65.689 129.005,65.579 128.826 C 65.531 128.749,65.626 128.683,65.788 128.678 C 66.787 128.649,68.410 128.000,67.484 128.000 C 67.371 128.000,67.322 127.956,67.376 127.901 C 67.545 127.733,68.178 128.013,68.060 128.204 C 67.993 128.313,68.026 128.337,68.144 128.264 C 68.251 128.198,68.288 128.061,68.225 127.960 C 68.153 127.843,68.210 127.814,68.385 127.881 C 68.534 127.939,68.763 127.880,68.892 127.751 C 69.021 127.622,69.174 127.563,69.232 127.621 C 69.290 127.678,69.449 127.581,69.585 127.404 C 69.830 127.089,69.832 127.090,69.737 127.417 C 69.646 127.729,69.655 127.732,69.880 127.458 C 70.012 127.298,70.276 127.167,70.467 127.167 C 70.658 127.167,70.861 127.090,70.918 126.997 C 70.976 126.904,71.093 126.871,71.178 126.924 C 71.264 126.977,71.333 126.932,71.333 126.825 C 71.333 126.718,71.443 126.673,71.578 126.725 C 71.713 126.777,71.863 126.753,71.912 126.674 C 71.962 126.594,71.908 126.490,71.793 126.444 C 71.678 126.398,71.778 126.354,72.017 126.346 C 72.664 126.327,73.495 125.998,73.453 125.777 C 73.433 125.671,73.604 125.575,73.833 125.564 C 74.448 125.536,74.808 125.343,74.923 124.980 C 74.979 124.803,75.113 124.669,75.221 124.682 C 75.804 124.754,76.032 124.656,75.926 124.380 C 75.865 124.222,75.869 124.147,75.934 124.212 C 75.999 124.277,76.152 124.248,76.274 124.147 C 76.396 124.045,76.606 124.005,76.740 124.056 C 76.874 124.108,77.156 123.998,77.367 123.812 C 77.578 123.627,77.645 123.529,77.516 123.596 C 77.361 123.677,77.322 123.653,77.402 123.523 C 77.469 123.416,77.588 123.368,77.667 123.417 C 77.746 123.465,77.858 123.428,77.917 123.333 C 77.975 123.239,78.093 123.205,78.179 123.258 C 78.265 123.311,78.381 123.238,78.435 123.095 C 78.490 122.952,78.615 122.885,78.712 122.945 C 78.824 123.014,78.850 122.951,78.784 122.777 C 78.685 122.520,79.023 122.392,79.554 122.484 C 79.630 122.498,79.636 122.419,79.568 122.309 C 79.484 122.172,79.535 122.144,79.731 122.220 C 79.889 122.280,79.975 122.261,79.923 122.177 C 79.871 122.093,80.127 121.857,80.491 121.652 C 80.855 121.447,81.114 121.217,81.067 121.140 C 81.019 121.063,81.135 121.000,81.323 121.000 C 81.626 121.000,81.740 120.836,81.691 120.473 C 81.669 120.307,82.619 120.010,82.763 120.139 C 82.831 120.200,82.833 120.156,82.767 120.042 C 82.691 119.909,82.752 119.833,82.935 119.833 C 83.093 119.833,83.171 119.782,83.108 119.719 C 83.046 119.657,83.226 119.508,83.509 119.389 C 83.792 119.270,83.981 119.104,83.929 119.021 C 83.838 118.873,84.230 118.638,84.441 118.713 C 84.498 118.733,84.608 118.581,84.684 118.375 C 84.767 118.150,84.962 118.000,85.171 118.000 C 85.363 118.000,85.484 117.943,85.441 117.873 C 85.295 117.637,85.809 117.122,86.084 117.227 C 86.236 117.285,86.308 117.260,86.251 117.168 C 86.106 116.934,86.470 116.333,86.756 116.333 C 86.890 116.333,87.000 116.189,87.000 116.013 C 87.000 115.793,87.156 115.659,87.501 115.583 C 87.777 115.522,87.961 115.404,87.909 115.321 C 87.800 115.145,88.861 114.000,89.132 114.000 C 89.232 114.000,89.367 113.913,89.433 113.808 C 89.512 113.680,89.473 113.658,89.317 113.744 C 89.189 113.815,89.308 113.668,89.583 113.419 C 89.858 113.169,90.065 112.898,90.042 112.816 C 90.019 112.734,90.078 112.667,90.174 112.667 C 90.270 112.667,90.326 112.535,90.299 112.375 C 90.267 112.183,90.344 112.099,90.523 112.128 C 90.694 112.156,90.834 112.019,90.900 111.758 C 90.957 111.530,91.153 111.263,91.335 111.166 C 91.518 111.068,91.667 110.881,91.667 110.750 C 91.667 110.619,91.817 110.431,92.000 110.333 C 92.183 110.235,92.333 110.013,92.333 109.840 C 92.333 109.666,92.521 109.377,92.750 109.196 C 92.979 109.016,93.167 108.719,93.167 108.537 C 93.167 108.349,93.307 108.169,93.489 108.121 C 93.702 108.066,93.850 107.830,93.926 107.427 C 93.989 107.092,94.077 106.855,94.123 106.901 C 94.239 107.016,94.667 106.567,94.667 106.330 C 94.667 106.224,94.821 106.012,95.009 105.860 C 95.334 105.596,95.459 105.275,95.487 104.625 C 95.495 104.452,95.631 104.333,95.824 104.333 C 96.085 104.333,96.157 104.198,96.199 103.625 C 96.227 103.235,96.312 102.954,96.389 103.000 C 96.586 103.119,96.987 102.331,96.994 101.811 C 96.998 101.515,97.109 101.344,97.333 101.285 C 97.597 101.216,97.667 101.058,97.667 100.527 C 97.667 100.015,97.741 99.832,97.982 99.756 C 98.205 99.685,98.331 99.432,98.412 98.892 C 98.490 98.369,98.618 98.105,98.817 98.053 C 99.040 97.994,99.117 97.775,99.144 97.113 C 99.168 96.539,99.272 96.180,99.455 96.042 C 99.607 95.927,99.673 95.833,99.603 95.833 C 99.533 95.833,99.594 95.715,99.738 95.571 C 99.891 95.418,100.000 95.025,100.000 94.624 C 100.000 94.146,100.112 93.819,100.368 93.547 C 100.668 93.227,100.740 92.943,100.758 91.991 C 100.776 91.092,100.856 90.742,101.110 90.455 C 101.379 90.150,101.445 89.801,101.478 88.502 C 101.508 87.327,101.580 86.885,101.759 86.785 C 101.892 86.711,102.000 86.510,102.000 86.339 C 102.000 86.168,102.094 85.996,102.208 85.958 C 102.374 85.902,102.375 85.837,102.210 85.637 C 102.096 85.499,102.046 85.342,102.100 85.289 C 102.294 85.094,102.216 72.600,102.020 72.534 C 101.917 72.500,101.833 72.372,101.833 72.250 C 101.833 72.128,101.763 72.003,101.678 71.972 C 101.593 71.942,101.506 71.354,101.486 70.667 C 101.445 69.319,101.275 68.504,100.999 68.333 C 100.904 68.274,100.798 67.631,100.763 66.904 C 100.687 65.283,100.694 65.329,100.542 65.353 C 100.084 65.425,100.000 65.282,100.000 64.429 C 100.000 63.563,99.732 63.000,99.321 63.000 C 99.236 63.000,99.167 62.500,99.167 61.889 C 99.167 61.278,99.120 60.824,99.063 60.881 C 98.857 61.087,98.522 60.531,98.470 59.898 C 98.440 59.534,98.325 59.241,98.208 59.229 C 98.094 59.218,97.925 59.199,97.833 59.188 C 97.742 59.176,97.667 58.792,97.667 58.333 C 97.667 57.858,97.591 57.500,97.490 57.500 C 97.393 57.500,97.360 57.425,97.417 57.333 C 97.473 57.242,97.403 57.167,97.260 57.167 C 97.096 57.167,97.000 57.017,97.000 56.762 C 97.000 56.359,96.616 55.833,96.321 55.833 C 96.236 55.833,96.167 55.529,96.167 55.157 C 96.167 54.748,96.101 54.521,96.000 54.583 C 95.908 54.640,95.833 54.569,95.833 54.427 C 95.833 54.284,95.766 54.167,95.685 54.167 C 95.603 54.167,95.489 53.979,95.432 53.750 C 95.364 53.481,95.210 53.333,94.997 53.333 C 94.731 53.333,94.667 53.220,94.667 52.754 C 94.667 52.320,94.562 52.106,94.250 51.901 C 94.021 51.751,93.833 51.480,93.833 51.299 C 93.833 51.113,93.693 50.932,93.513 50.885 C 93.327 50.836,93.213 50.685,93.243 50.526 C 93.331 50.044,93.029 49.500,92.672 49.500 C 92.482 49.500,92.333 49.390,92.333 49.250 C 92.333 49.112,92.183 48.849,91.999 48.665 C 91.815 48.481,91.641 48.179,91.613 47.994 C 91.585 47.809,91.396 47.542,91.195 47.401 C 90.993 47.259,90.855 47.093,90.887 47.030 C 90.920 46.968,90.809 46.785,90.640 46.625 C 90.471 46.465,90.329 46.390,90.323 46.458 C 90.317 46.527,90.242 46.408,90.156 46.193 C 90.070 45.978,89.849 45.763,89.666 45.715 C 89.379 45.640,89.255 45.383,89.308 44.975 C 89.316 44.916,89.156 44.908,88.953 44.958 C 88.750 45.008,88.637 44.991,88.702 44.919 C 88.872 44.735,88.534 44.167,88.255 44.167 C 88.127 44.167,87.977 44.024,87.922 43.850 C 87.777 43.394,87.004 42.667,86.665 42.667 C 86.475 42.667,86.340 42.491,86.273 42.156 C 86.217 41.875,86.107 41.684,86.028 41.732 C 85.950 41.781,85.731 41.610,85.540 41.352 C 85.350 41.095,84.926 40.757,84.597 40.601 C 84.213 40.419,84.000 40.202,84.000 39.992 C 84.000 39.773,83.886 39.667,83.651 39.667 C 83.442 39.667,83.267 39.533,83.215 39.333 C 83.167 39.150,83.043 38.991,82.939 38.981 C 82.835 38.970,82.675 38.944,82.583 38.923 C 82.492 38.902,82.328 38.873,82.220 38.859 C 82.111 38.845,81.975 38.683,81.917 38.500 C 81.858 38.317,81.674 38.167,81.507 38.167 C 81.320 38.167,81.162 38.003,81.097 37.743 C 81.038 37.510,80.918 37.364,80.830 37.419 C 80.742 37.473,80.479 37.327,80.246 37.094 C 80.013 36.861,79.768 36.678,79.703 36.688 C 79.244 36.757,78.833 36.630,78.833 36.419 C 78.833 36.283,78.565 36.059,78.238 35.922 C 77.858 35.764,77.687 35.603,77.764 35.478 C 77.837 35.359,77.813 35.326,77.702 35.395 C 77.602 35.457,77.424 35.405,77.307 35.279 C 77.189 35.153,76.969 35.083,76.818 35.122 C 76.632 35.171,76.509 35.058,76.438 34.775 C 76.353 34.437,76.234 34.358,75.825 34.370 C 75.482 34.380,75.235 34.267,75.064 34.023 C 74.925 33.824,74.741 33.704,74.655 33.757 C 74.570 33.810,74.500 33.782,74.500 33.695 C 74.500 33.608,74.406 33.541,74.292 33.545 C 73.743 33.565,73.500 33.480,73.500 33.268 C 73.500 33.028,73.155 32.833,72.729 32.833 C 72.595 32.833,72.301 32.649,72.075 32.424 C 71.769 32.118,71.519 32.026,71.084 32.060 C 70.654 32.094,70.479 32.031,70.412 31.818 C 70.330 31.559,68.905 31.189,68.446 31.306 C 68.370 31.326,68.351 31.273,68.403 31.188 C 68.455 31.104,68.381 30.990,68.238 30.935 C 68.096 30.881,68.020 30.770,68.069 30.690 C 68.119 30.609,67.772 30.557,67.298 30.573 C 66.631 30.596,66.360 30.527,66.101 30.268 C 65.863 30.030,65.476 29.912,64.765 29.861 C 63.825 29.793,63.333 29.565,63.333 29.198 C 63.333 29.110,62.701 29.035,61.918 29.030 C 60.454 29.021,60.085 28.934,60.268 28.637 C 60.337 28.525,60.243 28.506,60.000 28.583 C 59.794 28.649,59.665 28.638,59.713 28.560 C 59.762 28.481,59.565 28.414,59.276 28.410 C 54.401 28.347,54.167 28.332,54.167 28.083 C 54.167 27.946,54.148 27.825,54.125 27.814 C 53.863 27.695,48.487 27.719,48.413 27.840 C 48.358 27.928,48.201 28.000,48.064 28.000 C 47.926 28.000,47.848 27.944,47.891 27.875 C 47.933 27.806,47.787 27.750,47.565 27.750 C 47.328 27.750,47.125 27.870,47.070 28.042 C 46.990 28.295,46.736 28.335,45.114 28.346 C 43.503 28.357,42.520 28.409,41.716 28.526 C 41.605 28.542,41.550 28.613,41.593 28.683 C 41.751 28.938,41.283 29.032,39.841 29.036 C 38.454 29.040,38.358 29.063,38.188 29.437 C 38.014 29.818,37.361 29.942,35.864 29.876 C 35.743 29.871,35.683 29.906,35.731 29.953 C 35.964 30.186,35.250 30.519,34.441 30.554 C 33.945 30.576,33.429 30.684,33.296 30.795 C 33.162 30.906,32.991 30.942,32.916 30.874 C 32.841 30.806,32.836 30.847,32.905 30.966 C 33.007 31.144,33.080 31.144,33.307 30.966 C 33.554 30.773,33.559 30.781,33.355 31.042 C 33.208 31.229,32.897 31.333,32.489 31.333 C 32.139 31.333,31.806 31.410,31.748 31.503 C 31.691 31.596,31.574 31.629,31.488 31.576 C 31.403 31.523,31.333 31.639,31.333 31.832 C 31.333 32.144,31.256 32.176,30.640 32.114 C 30.059 32.056,29.888 32.112,29.589 32.460 C 29.372 32.711,29.054 32.875,28.782 32.875 C 28.535 32.875,28.333 32.927,28.333 32.990 C 28.333 33.053,28.082 33.203,27.776 33.323 C 27.469 33.443,27.096 33.739,26.947 33.979 C 26.695 34.385,26.676 33.221,26.676 17.835 C 26.676 6.562,26.621 1.235,26.504 1.196 C 26.409 1.164,26.374 1.070,26.425 0.986 C 26.477 0.902,26.370 0.833,26.186 0.833 C 25.815 0.833,25.563 0.562,25.847 0.468 C 25.947 0.434,25.704 0.409,25.306 0.412 C 24.909 0.415,19.052 0.436,12.292 0.459 M111.714 0.667 C 111.671 0.804,111.566 1.067,111.480 1.250 C 111.316 1.599,111.370 84.894,111.535 85.667 C 111.584 85.896,111.643 86.102,111.666 86.125 C 111.689 86.148,111.718 86.244,111.729 86.339 C 111.741 86.434,111.825 86.566,111.917 86.631 C 112.009 86.697,112.101 87.712,112.124 88.917 C 112.172 91.518,112.266 92.167,112.591 92.167 C 112.843 92.167,112.862 92.259,112.859 93.500 C 112.857 94.406,113.106 95.443,113.364 95.602 C 113.478 95.673,113.505 95.643,113.433 95.526 C 113.367 95.420,113.393 95.333,113.490 95.333 C 113.587 95.333,113.667 95.660,113.667 96.060 C 113.667 97.126,113.858 98.338,114.011 98.243 C 114.223 98.112,114.367 98.472,114.408 99.235 C 114.429 99.625,114.496 100.025,114.557 100.124 C 114.619 100.224,114.576 100.336,114.464 100.373 C 114.351 100.411,114.426 100.485,114.630 100.539 C 114.868 100.601,114.961 100.573,114.891 100.459 C 114.827 100.355,114.861 100.331,114.974 100.401 C 115.080 100.466,115.167 100.844,115.167 101.240 C 115.167 101.821,115.231 101.978,115.500 102.048 C 115.717 102.105,115.841 102.286,115.854 102.568 C 115.866 102.805,115.894 103.075,115.917 103.167 C 115.940 103.258,115.968 103.408,115.979 103.500 C 115.991 103.592,116.150 103.667,116.333 103.667 C 116.636 103.667,116.788 104.177,116.690 104.865 C 116.681 104.928,116.822 105.027,117.003 105.084 C 117.322 105.186,117.371 105.317,117.389 106.130 C 117.395 106.379,117.525 106.542,117.765 106.602 C 118.051 106.674,118.158 106.859,118.243 107.431 C 118.329 107.999,118.425 108.167,118.665 108.167 C 118.861 108.167,118.997 108.306,119.030 108.542 C 119.059 108.748,119.171 108.917,119.278 108.917 C 119.573 108.917,119.653 109.052,119.697 109.634 C 119.723 109.975,119.845 110.201,120.035 110.261 C 120.199 110.313,120.343 110.426,120.354 110.511 C 120.398 110.838,120.426 110.923,120.556 111.128 C 120.629 111.244,120.759 111.296,120.844 111.243 C 120.929 111.191,121.086 111.340,121.193 111.574 C 121.299 111.808,121.520 112.000,121.684 112.000 C 121.891 112.000,121.961 112.101,121.917 112.333 C 121.878 112.536,121.942 112.667,122.082 112.667 C 122.208 112.667,122.481 112.910,122.689 113.208 C 122.897 113.506,123.164 113.810,123.283 113.883 C 123.402 113.957,123.500 114.093,123.500 114.187 C 123.500 114.366,123.911 114.833,124.068 114.833 C 124.260 114.833,125.315 115.963,125.215 116.063 C 125.158 116.120,125.204 116.167,125.317 116.167 C 125.578 116.167,126.667 117.311,126.667 117.586 C 126.667 117.759,127.363 118.006,127.792 117.986 C 127.861 117.983,127.958 118.154,128.008 118.365 C 128.057 118.577,128.189 118.759,128.299 118.771 C 128.410 118.782,128.583 118.801,128.684 118.813 C 128.786 118.824,128.826 118.945,128.774 119.081 C 128.721 119.218,128.732 119.322,128.798 119.313 C 129.107 119.272,129.665 119.564,129.744 119.810 C 129.845 120.120,130.870 120.867,131.399 121.015 C 131.592 121.069,131.733 121.195,131.712 121.296 C 131.691 121.397,131.814 121.524,131.985 121.579 C 132.156 121.633,132.496 121.862,132.740 122.089 C 133.014 122.343,133.382 122.500,133.703 122.500 C 133.989 122.500,134.178 122.544,134.125 122.597 C 133.963 122.759,134.552 123.333,134.880 123.333 C 135.049 123.333,135.141 123.407,135.085 123.498 C 135.026 123.592,135.093 123.621,135.240 123.564 C 135.399 123.503,135.546 123.584,135.624 123.774 C 135.693 123.944,135.844 124.091,135.958 124.100 C 136.597 124.151,136.677 124.182,136.581 124.337 C 136.523 124.431,136.537 124.489,136.613 124.466 C 136.845 124.394,138.167 124.987,138.167 125.163 C 138.167 125.255,138.473 125.378,138.847 125.438 C 139.238 125.501,139.608 125.678,139.720 125.857 C 139.826 126.027,140.073 126.167,140.268 126.167 C 140.462 126.167,140.809 126.314,141.039 126.495 C 141.268 126.675,141.503 126.775,141.561 126.717 C 141.619 126.659,141.667 126.707,141.667 126.823 C 141.667 126.947,141.775 126.994,141.925 126.936 C 142.071 126.880,142.140 126.908,142.084 126.999 C 142.022 127.099,142.179 127.122,142.489 127.061 C 142.861 126.986,143.021 127.029,143.095 127.221 C 143.155 127.377,143.572 127.561,144.130 127.676 C 145.028 127.863,145.649 128.115,145.841 128.371 C 145.891 128.438,146.378 128.531,146.924 128.578 C 148.166 128.685,148.460 128.738,148.606 128.884 C 148.797 129.075,149.029 129.015,148.901 128.808 C 148.826 128.687,148.855 128.660,148.977 128.736 C 149.084 128.802,149.129 128.926,149.076 129.012 C 149.023 129.097,149.097 129.176,149.240 129.188 C 149.383 129.199,149.575 129.227,149.667 129.250 C 149.758 129.273,150.321 129.301,150.917 129.313 C 151.796 129.329,152.000 129.384,152.000 129.604 C 152.000 129.817,152.050 129.833,152.234 129.680 C 152.412 129.532,152.483 129.533,152.534 129.684 C 152.570 129.793,152.870 129.890,153.201 129.899 C 153.780 129.916,153.938 129.680,153.365 129.654 C 153.210 129.646,153.172 129.604,153.280 129.560 C 153.389 129.516,153.689 129.580,153.947 129.702 C 154.555 129.990,154.816 129.971,155.379 129.597 L 155.841 129.290 155.796 116.170 C 155.760 106.024,155.703 102.995,155.543 102.802 C 155.429 102.665,155.380 102.508,155.435 102.454 C 155.489 102.400,155.364 102.400,155.157 102.454 C 154.919 102.517,154.820 102.489,154.888 102.379 C 154.959 102.265,154.614 102.211,153.879 102.222 C 152.902 102.237,152.751 102.198,152.673 101.911 C 152.598 101.638,152.417 101.577,151.594 101.544 C 150.617 101.504,150.257 101.300,150.414 100.873 C 150.468 100.726,150.355 100.688,150.033 100.744 C 149.706 100.802,149.437 100.707,149.095 100.412 C 148.831 100.186,148.476 100.000,148.307 100.000 C 148.138 100.000,148.000 99.888,148.000 99.750 C 148.000 99.612,147.902 99.500,147.781 99.500 C 147.661 99.500,147.351 99.279,147.092 99.009 C 146.833 98.738,146.462 98.493,146.269 98.463 C 146.075 98.433,145.935 98.317,145.958 98.204 C 145.981 98.092,145.927 98.000,145.839 98.000 C 145.584 98.000,144.500 96.848,144.500 96.578 C 144.500 96.425,144.336 96.333,144.064 96.333 C 143.710 96.333,143.644 96.271,143.715 95.999 C 143.781 95.748,143.703 95.640,143.401 95.565 C 143.156 95.503,143.000 95.342,143.000 95.152 C 143.000 94.961,142.844 94.801,142.600 94.739 C 142.208 94.641,141.860 93.833,142.210 93.833 C 142.307 93.833,142.298 93.742,142.189 93.610 C 142.086 93.487,142.047 93.342,142.101 93.288 C 142.155 93.234,142.052 93.228,141.871 93.275 C 141.604 93.345,141.522 93.255,141.437 92.800 C 141.379 92.492,141.192 92.119,141.020 91.973 C 140.827 91.807,140.727 91.536,140.757 91.260 C 140.794 90.928,140.707 90.769,140.419 90.637 C 140.132 90.507,140.004 90.272,139.923 89.733 C 139.859 89.304,139.685 88.915,139.499 88.785 C 139.235 88.599,139.180 88.324,139.154 87.038 C 139.129 85.787,139.067 85.462,138.813 85.231 C 138.512 84.959,138.503 83.703,138.501 43.234 C 138.499 2.521,138.477 0.667,137.994 0.667 C 137.895 0.667,137.848 0.610,137.891 0.542 C 137.933 0.473,132.078 0.417,124.880 0.417 C 113.391 0.417,111.782 0.447,111.714 0.667 M162.601 27.069 C 162.650 27.196,162.598 27.356,162.486 27.426 C 162.347 27.511,162.325 27.482,162.417 27.333 C 162.506 27.189,162.486 27.155,162.359 27.234 C 162.253 27.299,162.167 27.466,162.167 27.603 C 162.167 27.741,162.090 27.806,161.997 27.748 C 161.882 27.677,161.831 37.241,161.840 57.409 C 161.850 78.929,161.904 87.143,162.036 87.061 C 162.146 86.993,162.171 87.025,162.098 87.142 C 162.033 87.249,162.096 87.453,162.239 87.597 C 162.383 87.740,162.514 87.796,162.532 87.720 C 162.549 87.645,162.618 88.783,162.686 90.250 C 162.830 93.410,162.814 93.305,163.170 93.418 C 163.402 93.491,163.442 93.693,163.401 94.582 C 163.374 95.174,163.424 95.703,163.512 95.757 C 163.600 95.812,163.629 95.926,163.576 96.012 C 163.523 96.097,163.564 96.167,163.667 96.167 C 163.769 96.167,163.807 96.241,163.751 96.331 C 163.693 96.426,163.760 96.454,163.908 96.397 C 164.126 96.313,164.167 96.472,164.167 97.399 C 164.167 98.022,164.239 98.500,164.333 98.500 C 164.425 98.500,164.500 98.650,164.500 98.833 C 164.500 99.017,164.587 99.148,164.693 99.125 C 164.812 99.099,164.895 99.352,164.910 99.790 C 164.925 100.221,165.075 100.686,165.294 100.983 C 165.492 101.251,165.673 101.748,165.696 102.088 C 165.727 102.547,165.836 102.751,166.119 102.880 C 166.420 103.017,166.500 103.188,166.500 103.693 C 166.500 104.139,166.573 104.333,166.740 104.333 C 167.041 104.333,167.210 104.599,167.261 105.153 C 167.282 105.390,167.308 105.631,167.317 105.689 C 167.326 105.747,167.483 105.834,167.667 105.882 C 167.855 105.931,168.009 106.120,168.021 106.318 C 168.055 106.887,168.071 106.928,168.375 107.232 C 168.644 107.501,168.734 107.732,168.688 108.037 C 168.678 108.103,168.821 108.238,169.006 108.337 C 169.191 108.436,169.459 108.808,169.602 109.164 C 169.791 109.637,169.932 109.785,170.125 109.711 C 170.290 109.648,170.346 109.678,170.276 109.792 C 170.167 109.968,170.496 110.412,170.821 110.527 C 170.908 110.558,171.020 110.808,171.069 111.083 C 171.117 111.358,171.298 111.699,171.471 111.840 C 171.643 111.982,171.874 112.265,171.984 112.470 C 172.094 112.675,172.255 112.799,172.342 112.745 C 172.429 112.691,172.500 112.763,172.500 112.905 C 172.500 113.048,172.650 113.258,172.833 113.372 C 173.017 113.487,173.167 113.712,173.167 113.873 C 173.167 114.075,173.297 114.167,173.583 114.167 C 173.917 114.167,174.000 114.250,174.000 114.583 C 174.000 114.889,174.089 115.000,174.333 115.000 C 174.632 115.000,174.745 115.173,174.686 115.542 C 174.676 115.610,174.824 115.667,175.016 115.667 C 175.217 115.667,175.399 115.799,175.446 115.980 C 175.491 116.152,175.713 116.377,175.938 116.479 C 176.188 116.593,176.329 116.780,176.299 116.958 C 176.264 117.168,176.355 117.244,176.621 117.230 C 176.841 117.219,177.030 117.330,177.085 117.505 C 177.137 117.668,177.370 117.848,177.604 117.907 C 177.892 117.979,177.999 118.094,177.935 118.262 C 177.874 118.422,177.980 118.564,178.230 118.659 C 178.445 118.741,178.664 118.973,178.717 119.176 C 178.773 119.390,178.905 119.508,179.033 119.459 C 179.153 119.413,179.348 119.478,179.466 119.604 C 179.640 119.791,179.640 119.836,179.465 119.847 C 179.347 119.854,179.500 119.970,179.805 120.103 C 180.110 120.236,180.518 120.492,180.711 120.673 C 180.905 120.853,181.203 121.000,181.375 121.000 C 181.546 121.000,181.645 121.067,181.595 121.148 C 181.472 121.347,181.818 121.615,182.380 121.756 C 182.634 121.820,182.915 122.008,183.004 122.174 C 183.093 122.341,183.335 122.501,183.541 122.530 C 183.748 122.559,183.917 122.671,183.917 122.778 C 183.917 123.064,184.033 123.138,184.647 123.247 C 185.148 123.335,185.758 123.746,185.745 123.988 C 185.742 124.040,185.843 124.060,185.969 124.031 C 186.095 124.002,186.297 124.114,186.419 124.281 C 186.540 124.447,186.721 124.593,186.820 124.604 C 186.919 124.616,187.110 124.634,187.244 124.646 C 187.377 124.657,187.640 124.831,187.827 125.031 C 188.014 125.232,188.169 125.326,188.172 125.240 C 188.175 125.154,188.250 125.209,188.340 125.364 C 188.446 125.545,188.647 125.618,188.909 125.570 C 189.144 125.528,189.372 125.593,189.449 125.724 C 189.644 126.054,190.244 126.333,190.759 126.333 C 191.120 126.333,191.171 126.378,191.018 126.562 C 190.800 126.824,191.454 127.036,192.792 127.138 C 192.998 127.154,193.148 127.260,193.125 127.375 C 193.102 127.490,193.189 127.561,193.318 127.533 C 193.447 127.505,193.602 127.562,193.663 127.660 C 193.723 127.758,194.176 127.847,194.669 127.858 C 195.334 127.873,195.633 127.961,195.825 128.197 C 196.068 128.496,196.482 128.588,198.092 128.696 C 198.461 128.721,198.602 128.793,198.507 128.909 C 198.414 129.021,198.491 129.089,198.723 129.100 C 200.059 129.164,201.249 129.362,201.362 129.540 C 201.467 129.706,201.495 129.704,201.497 129.530 C 201.499 129.364,201.565 129.375,201.762 129.571 C 202.047 129.857,202.242 129.923,202.094 129.684 C 201.948 129.448,202.437 129.338,202.667 129.555 C 202.826 129.704,202.893 129.701,202.951 129.542 C 203.042 129.295,203.614 129.261,203.694 129.498 C 203.770 129.721,205.314 129.999,205.431 129.810 C 205.482 129.728,205.593 129.704,205.678 129.757 C 205.764 129.810,205.836 129.755,205.838 129.635 C 205.842 129.489,205.896 129.506,206.001 129.686 C 206.275 130.156,212.167 129.961,212.167 129.482 C 212.167 129.401,212.692 129.342,213.333 129.352 C 214.084 129.364,214.501 129.438,214.503 129.560 C 214.504 129.692,214.545 129.688,214.634 129.547 C 214.705 129.436,215.227 129.310,215.793 129.268 C 216.845 129.191,217.230 129.070,217.098 128.858 C 217.058 128.792,217.163 128.738,217.333 128.738 C 217.503 128.738,217.609 128.792,217.568 128.858 C 217.528 128.923,217.571 129.024,217.664 129.082 C 217.757 129.139,217.833 129.065,217.833 128.917 C 217.833 128.768,217.903 128.690,217.988 128.743 C 218.074 128.796,218.188 128.767,218.242 128.680 C 218.296 128.592,218.676 128.535,219.087 128.552 C 219.530 128.571,219.833 128.510,219.833 128.403 C 219.833 128.058,220.667 127.731,220.842 128.008 C 220.947 128.174,220.996 128.184,220.997 128.042 C 220.999 127.927,221.117 127.833,221.260 127.833 C 221.403 127.833,221.476 127.903,221.424 127.989 C 221.371 128.074,221.540 128.038,221.799 127.909 C 222.058 127.780,222.453 127.654,222.676 127.629 C 222.900 127.604,223.167 127.476,223.270 127.344 C 223.432 127.137,223.678 127.076,224.792 126.965 C 224.906 126.954,225.000 126.852,225.000 126.739 C 225.000 126.527,225.998 126.091,226.003 126.300 C 226.004 126.364,226.060 126.342,226.128 126.250 C 226.348 125.949,227.054 125.606,226.922 125.863 C 226.860 125.984,226.926 125.939,227.069 125.762 C 227.213 125.586,227.379 125.490,227.438 125.549 C 227.498 125.609,227.767 125.472,228.036 125.245 C 228.305 125.019,228.598 124.833,228.687 124.833 C 228.775 124.833,229.050 124.646,229.297 124.417 C 229.544 124.188,229.935 123.998,230.165 123.995 C 230.603 123.989,231.229 123.617,231.069 123.458 C 231.018 123.407,231.217 123.312,231.512 123.247 C 231.807 123.183,232.289 122.889,232.582 122.595 C 232.876 122.302,233.350 121.964,233.636 121.846 C 233.922 121.728,234.201 121.489,234.256 121.315 C 234.311 121.142,234.423 121.000,234.505 121.000 C 234.588 121.000,235.010 120.775,235.444 120.500 C 235.877 120.225,236.174 120.000,236.104 120.000 C 235.886 120.000,236.393 119.590,236.875 119.377 C 237.127 119.265,237.333 119.097,237.333 119.004 C 237.333 118.910,237.448 118.833,237.587 118.833 C 237.727 118.833,237.913 118.646,238.000 118.417 C 238.087 118.188,238.268 118.000,238.401 118.000 C 238.535 118.000,238.692 117.850,238.750 117.667 C 238.846 117.363,239.149 117.240,239.583 117.327 C 239.675 117.346,239.695 117.306,239.628 117.239 C 239.560 117.171,239.635 117.010,239.794 116.879 C 239.953 116.749,239.978 116.697,239.849 116.763 C 239.695 116.843,239.656 116.819,239.734 116.692 C 239.799 116.587,239.961 116.500,240.093 116.500 C 240.310 116.500,240.407 116.298,240.353 115.958 C 240.335 115.845,240.725 115.764,241.042 115.814 C 241.162 115.833,241.232 115.565,241.182 115.277 C 241.168 115.201,241.305 115.099,241.486 115.052 C 241.667 115.005,241.838 114.805,241.866 114.608 C 241.894 114.411,242.029 114.250,242.167 114.250 C 242.304 114.250,242.489 114.086,242.577 113.885 C 242.665 113.685,242.871 113.485,243.035 113.443 C 243.202 113.399,243.333 113.211,243.333 113.016 C 243.333 112.824,243.390 112.676,243.458 112.686 C 243.800 112.740,243.987 112.637,244.081 112.342 C 244.137 112.163,244.330 111.971,244.509 111.914 C 244.712 111.849,244.833 111.661,244.833 111.411 C 244.833 111.140,244.907 111.039,245.062 111.098 C 245.219 111.159,245.361 110.948,245.515 110.426 C 245.639 110.009,245.824 109.667,245.926 109.667 C 246.029 109.667,246.201 109.475,246.307 109.241 C 246.414 109.006,246.568 108.855,246.648 108.905 C 246.786 108.990,247.300 108.518,247.208 108.391 C 247.004 108.108,247.221 107.523,247.561 107.437 C 247.841 107.367,247.948 107.229,247.931 106.961 C 247.917 106.739,248.046 106.503,248.244 106.389 C 248.429 106.282,248.589 106.095,248.598 105.972 C 248.608 105.850,248.627 105.619,248.641 105.458 C 248.655 105.298,248.747 105.167,248.845 105.167 C 249.223 105.167,249.477 104.708,249.394 104.177 C 249.325 103.738,249.371 103.626,249.653 103.552 C 249.842 103.503,249.958 103.401,249.912 103.326 C 249.866 103.251,249.904 103.143,249.997 103.085 C 250.090 103.027,250.167 102.797,250.167 102.573 C 250.167 102.350,250.330 102.003,250.530 101.804 C 250.761 101.573,250.903 101.209,250.920 100.804 C 250.964 99.755,250.989 99.667,251.250 99.667 C 251.387 99.667,251.503 99.648,251.506 99.625 C 251.509 99.602,251.556 99.133,251.610 98.583 C 251.675 97.919,251.812 97.483,252.020 97.285 C 252.330 96.990,252.362 96.741,252.362 94.625 C 252.362 94.007,252.439 93.778,252.714 93.586 C 253.037 93.359,253.072 93.153,253.126 91.128 C 253.176 89.289,253.234 88.875,253.474 88.667 C 253.781 88.400,253.773 88.515,253.910 82.667 C 253.977 79.834,254.001 79.563,254.223 79.208 C 254.299 79.086,254.272 79.000,254.156 79.000 C 254.011 79.000,254.008 78.941,254.143 78.779 C 254.270 78.625,254.276 78.383,254.163 77.988 C 253.919 77.137,253.966 75.591,254.258 74.861 C 254.467 74.340,254.502 73.692,254.442 71.483 C 254.355 68.316,254.350 68.032,254.375 67.583 C 254.385 67.400,254.361 58.813,254.322 48.500 L 254.252 29.750 254.167 48.500 L 254.081 67.250 254.041 48.472 C 254.009 33.806,254.045 29.680,254.203 29.627 C 254.317 29.589,254.411 29.258,254.416 28.876 C 254.421 28.487,254.357 28.235,254.268 28.291 C 254.178 28.346,254.157 28.265,254.220 28.102 C 254.285 27.931,254.263 27.857,254.164 27.919 C 254.072 27.975,253.953 27.904,253.898 27.761 C 253.836 27.599,253.594 27.500,253.260 27.500 C 252.964 27.500,252.679 27.457,252.627 27.405 C 252.506 27.284,240.834 27.313,240.117 27.436 C 239.794 27.492,239.663 27.471,239.785 27.383 C 239.932 27.278,239.887 27.177,239.618 27.009 C 239.283 26.800,239.270 26.804,239.477 27.055 C 239.826 27.477,239.718 27.486,233.777 27.537 C 228.324 27.583,228.302 27.585,227.999 27.959 C 227.832 28.166,227.670 28.260,227.639 28.168 C 227.608 28.077,227.588 39.772,227.593 54.158 C 227.599 68.544,227.540 80.275,227.462 80.226 C 227.384 80.178,227.360 80.333,227.410 80.569 C 227.459 80.806,227.539 81.188,227.587 81.417 C 227.634 81.646,227.598 81.833,227.506 81.833 C 227.406 81.833,227.368 82.184,227.411 82.702 C 227.450 83.179,227.420 83.648,227.343 83.743 C 227.266 83.839,227.215 84.104,227.230 84.333 C 227.245 84.563,227.143 84.849,227.004 84.971 C 226.864 85.092,226.839 85.147,226.947 85.093 C 227.055 85.039,227.191 85.071,227.248 85.164 C 227.306 85.257,227.272 85.333,227.174 85.333 C 227.075 85.333,226.995 85.540,226.996 85.792 C 227.000 87.141,226.845 88.038,226.572 88.238 C 226.413 88.354,226.331 88.528,226.390 88.624 C 226.450 88.720,226.385 88.842,226.247 88.895 C 226.058 88.967,226.016 89.162,226.081 89.678 C 226.166 90.350,225.794 91.333,225.454 91.333 C 225.377 91.333,225.355 91.400,225.405 91.480 C 225.455 91.561,225.349 91.814,225.170 92.041 C 224.991 92.269,224.892 92.503,224.950 92.561 C 225.008 92.619,224.968 92.667,224.861 92.667 C 224.754 92.667,224.667 92.779,224.667 92.917 C 224.667 93.054,224.573 93.168,224.458 93.169 C 224.293 93.171,224.293 93.199,224.460 93.305 C 224.616 93.404,224.563 93.539,224.252 93.832 C 224.022 94.048,223.833 94.370,223.833 94.547 C 223.833 94.783,223.757 94.840,223.547 94.759 C 223.389 94.699,223.310 94.699,223.370 94.759 C 223.483 94.872,223.448 94.927,222.747 95.717 C 222.520 95.974,222.333 96.301,222.333 96.443 C 222.333 96.601,222.239 96.666,222.092 96.610 C 221.930 96.548,221.881 96.597,221.943 96.758 C 222.006 96.924,221.921 97.000,221.675 97.000 C 221.441 97.000,221.356 97.069,221.434 97.195 C 221.514 97.325,221.465 97.356,221.286 97.287 C 221.106 97.218,221.045 97.256,221.101 97.404 C 221.198 97.655,220.727 97.890,220.459 97.725 C 220.359 97.663,220.330 97.694,220.394 97.796 C 220.455 97.896,220.317 98.181,220.086 98.429 C 219.855 98.678,219.667 98.825,219.667 98.754 C 219.667 98.684,219.367 98.936,219.000 99.313 C 218.633 99.691,218.333 99.954,218.333 99.896 C 218.333 99.839,218.224 99.883,218.091 99.994 C 217.957 100.105,217.773 100.149,217.681 100.092 C 217.590 100.036,217.399 100.166,217.258 100.381 C 217.056 100.690,216.877 100.763,216.412 100.726 C 216.087 100.701,215.860 100.742,215.907 100.818 C 216.071 101.083,215.410 101.468,214.609 101.574 C 214.164 101.632,213.617 101.801,213.392 101.948 C 213.115 102.130,212.607 102.216,211.811 102.216 C 211.059 102.216,210.610 102.287,210.562 102.413 C 210.471 102.649,210.000 102.681,210.000 102.452 C 210.000 102.364,209.891 102.383,209.757 102.494 C 209.624 102.605,209.434 102.646,209.337 102.585 C 209.239 102.525,209.179 102.575,209.204 102.696 C 209.238 102.860,209.016 102.910,208.333 102.892 C 207.204 102.861,206.333 102.679,206.333 102.475 C 206.333 102.387,206.198 102.394,206.017 102.491 C 205.780 102.618,205.677 102.601,205.610 102.425 C 205.541 102.246,205.226 102.200,204.301 102.233 C 202.992 102.279,202.456 102.206,202.584 101.999 C 202.690 101.827,202.224 101.629,201.508 101.542 C 200.933 101.471,200.096 100.960,200.270 100.785 C 200.321 100.734,200.153 100.716,199.896 100.744 C 199.380 100.801,198.966 100.691,199.067 100.524 C 199.198 100.307,198.721 100.000,198.250 100.000 C 198.112 100.000,198.000 99.920,198.000 99.821 C 198.000 99.594,197.568 99.155,197.455 99.267 C 197.409 99.314,197.164 99.160,196.911 98.926 C 196.658 98.692,196.321 98.500,196.162 98.500 C 196.003 98.500,195.832 98.344,195.782 98.154 C 195.732 97.964,195.536 97.768,195.346 97.718 C 195.150 97.667,195.000 97.491,195.000 97.314 C 195.000 97.111,194.882 97.000,194.667 97.000 C 194.443 97.000,194.333 96.889,194.333 96.661 C 194.333 96.475,194.221 96.280,194.083 96.227 C 193.946 96.174,193.833 96.027,193.833 95.899 C 193.833 95.771,193.766 95.667,193.685 95.667 C 193.603 95.667,193.489 95.479,193.432 95.250 C 193.374 95.021,193.221 94.833,193.092 94.833 C 192.962 94.833,192.833 94.665,192.803 94.458 C 192.769 94.217,192.616 94.064,192.375 94.030 C 192.077 93.988,191.999 93.869,191.997 93.447 C 191.995 92.877,191.804 92.458,191.565 92.494 C 191.483 92.507,191.356 92.213,191.282 91.843 C 191.203 91.445,191.014 91.097,190.824 90.995 C 190.587 90.868,190.500 90.644,190.500 90.161 C 190.500 89.797,190.421 89.500,190.323 89.500 C 190.226 89.500,190.193 89.425,190.250 89.333 C 190.307 89.242,190.236 89.167,190.093 89.167 C 189.916 89.167,189.825 88.994,189.808 88.625 C 189.794 88.327,189.772 87.896,189.759 87.667 C 189.732 87.176,189.341 86.333,189.140 86.333 C 189.063 86.333,189.000 73.218,189.000 57.187 C 189.000 30.289,188.979 28.023,188.725 27.812 C 188.505 27.630,187.238 27.573,182.475 27.534 C 179.189 27.507,176.500 27.432,176.500 27.367 C 176.500 27.303,175.282 27.268,173.792 27.291 C 166.802 27.397,163.036 27.409,163.088 27.325 C 163.120 27.275,163.003 27.144,162.829 27.036 C 162.572 26.876,162.529 26.882,162.601 27.069 M56.212 55.465 C 56.457 55.528,56.471 55.585,56.295 55.802 C 56.123 56.015,56.124 56.040,56.299 55.934 C 56.418 55.863,56.605 55.880,56.716 55.971 C 56.952 56.168,56.946 56.167,57.932 56.167 C 58.542 56.167,58.715 56.231,58.780 56.481 C 58.833 56.685,58.967 56.767,59.162 56.716 C 59.327 56.673,59.507 56.709,59.560 56.796 C 59.614 56.884,59.924 56.926,60.248 56.890 C 60.747 56.835,60.866 56.889,61.028 57.246 C 61.176 57.569,61.345 57.667,61.757 57.667 C 62.154 57.667,62.317 57.754,62.382 58.000 C 62.445 58.241,62.609 58.333,62.972 58.333 C 63.524 58.333,64.069 58.754,63.891 59.042 C 63.820 59.156,63.877 59.186,64.042 59.122 C 64.381 58.992,64.974 59.506,64.863 59.833 C 64.794 60.039,64.824 60.046,65.032 59.875 C 65.243 59.701,65.359 59.756,65.734 60.208 C 65.980 60.506,66.216 60.731,66.258 60.708 C 66.533 60.557,66.842 60.728,66.931 61.082 C 66.989 61.311,67.094 61.462,67.166 61.417 C 67.325 61.319,67.701 61.744,67.569 61.875 C 67.517 61.927,67.629 62.019,67.818 62.079 C 68.264 62.220,69.083 63.041,69.083 63.346 C 69.083 63.477,69.252 63.607,69.458 63.637 C 69.698 63.671,69.833 63.805,69.833 64.008 C 69.833 64.209,69.987 64.366,70.250 64.432 C 70.608 64.521,70.667 64.631,70.667 65.203 C 70.667 65.736,70.718 65.849,70.925 65.770 C 71.074 65.713,71.141 65.741,71.082 65.835 C 71.026 65.926,71.052 66.000,71.139 66.000 C 71.226 66.000,71.344 66.187,71.402 66.416 C 71.459 66.644,71.592 66.813,71.698 66.791 C 71.804 66.768,71.972 67.012,72.070 67.333 C 72.303 68.089,72.486 68.362,72.678 68.243 C 72.764 68.190,72.843 68.376,72.854 68.657 C 72.890 69.541,72.909 69.582,73.292 69.637 C 73.607 69.681,73.667 69.793,73.667 70.335 C 73.667 70.690,73.747 71.030,73.845 71.090 C 73.943 71.151,73.981 71.309,73.930 71.442 C 73.879 71.575,73.906 71.641,73.990 71.590 C 74.201 71.459,74.381 72.092,74.414 73.083 C 74.436 73.763,74.509 73.947,74.804 74.081 C 75.214 74.267,75.226 74.498,75.177 81.403 C 75.149 85.194,75.152 85.177,74.648 85.080 C 74.381 85.028,74.344 85.062,74.484 85.230 C 74.583 85.350,74.622 85.489,74.571 85.540 C 74.519 85.592,74.449 85.967,74.414 86.373 C 74.324 87.433,74.284 87.558,73.958 87.801 C 73.759 87.950,73.667 88.247,73.667 88.741 C 73.667 89.323,73.611 89.458,73.379 89.440 C 73.099 89.417,73.064 89.487,73.021 90.155 C 73.009 90.332,72.891 90.585,72.758 90.718 C 72.625 90.851,72.566 91.011,72.628 91.072 C 72.689 91.134,72.611 91.135,72.453 91.074 C 72.233 90.990,72.166 91.055,72.164 91.357 C 72.161 91.839,71.781 92.594,71.563 92.553 C 71.475 92.537,71.391 92.680,71.376 92.872 C 71.348 93.242,71.023 93.534,70.795 93.393 C 70.720 93.347,70.669 93.370,70.682 93.446 C 70.792 94.078,70.633 94.637,70.321 94.718 C 70.131 94.768,69.936 94.960,69.887 95.145 C 69.839 95.330,69.638 95.504,69.441 95.532 C 69.191 95.568,69.089 95.694,69.103 95.951 C 69.113 96.153,69.076 96.310,69.019 96.299 C 68.784 96.256,68.333 96.551,68.333 96.750 C 68.333 96.868,68.137 97.013,67.897 97.073 C 67.657 97.134,67.506 97.229,67.562 97.284 C 67.734 97.456,67.324 97.819,67.069 97.722 C 66.916 97.663,66.860 97.711,66.913 97.856 C 67.027 98.166,66.818 98.448,66.417 98.528 C 66.223 98.567,66.102 98.707,66.128 98.862 C 66.168 99.105,65.812 99.248,64.882 99.364 C 64.772 99.378,64.711 99.436,64.746 99.494 C 64.862 99.681,64.559 100.021,64.233 100.068 C 64.059 100.093,63.893 100.271,63.865 100.464 C 63.821 100.760,63.714 100.806,63.168 100.765 C 62.611 100.722,62.510 100.769,62.425 101.108 C 62.333 101.476,61.655 101.655,60.917 101.506 C 60.825 101.487,60.804 101.526,60.869 101.591 C 61.214 101.937,60.664 102.278,59.846 102.226 C 59.101 102.179,58.984 102.218,58.795 102.578 C 58.679 102.800,58.526 102.977,58.456 102.970 C 58.012 102.927,56.326 103.210,56.245 103.341 C 56.191 103.428,56.067 103.500,55.970 103.500 C 55.856 103.500,55.867 103.395,56.000 103.208 C 56.115 103.048,56.030 103.104,55.812 103.333 L 55.417 103.750 50.794 103.739 C 46.405 103.729,46.152 103.712,45.794 103.393 C 45.519 103.149,45.153 103.050,44.446 103.029 C 43.525 103.001,43.000 102.758,43.000 102.360 C 43.000 102.270,42.681 102.210,42.292 102.228 C 41.815 102.249,41.502 102.170,41.333 101.985 C 41.196 101.835,40.822 101.654,40.503 101.584 C 40.184 101.514,39.592 101.204,39.188 100.895 C 38.783 100.586,38.383 100.333,38.300 100.333 C 38.216 100.333,38.187 100.268,38.236 100.189 C 38.286 100.109,38.196 100.044,38.038 100.045 C 37.311 100.047,37.167 99.984,37.167 99.667 C 37.167 99.375,37.005 99.263,36.647 99.306 C 36.591 99.313,36.371 99.134,36.160 98.909 C 35.948 98.684,35.601 98.500,35.388 98.500 C 35.151 98.500,35.000 98.401,35.000 98.246 C 35.000 98.106,34.813 97.920,34.583 97.833 C 34.323 97.734,34.167 97.545,34.167 97.328 C 34.167 97.137,34.092 97.026,34.001 97.083 C 33.909 97.139,33.747 96.994,33.641 96.759 C 33.534 96.525,33.344 96.333,33.220 96.333 C 33.095 96.333,32.907 96.146,32.803 95.917 C 32.635 95.549,32.479 95.440,32.160 95.469 C 32.110 95.473,32.057 95.314,32.042 95.116 C 32.027 94.917,31.928 94.726,31.822 94.691 C 31.687 94.646,31.698 94.583,31.856 94.482 C 32.023 94.377,32.028 94.338,31.875 94.336 C 31.760 94.334,31.610 94.332,31.542 94.331 C 31.473 94.329,31.333 94.086,31.232 93.789 C 31.110 93.433,30.954 93.267,30.773 93.299 C 30.572 93.335,30.500 93.222,30.500 92.872 C 30.500 92.437,30.026 91.534,29.999 91.917 C 29.992 92.008,29.816 91.688,29.608 91.205 C 29.399 90.722,29.177 90.379,29.114 90.441 C 29.051 90.504,28.994 90.412,28.988 90.236 C 28.961 89.543,28.815 89.075,28.571 88.891 C 28.429 88.786,28.286 88.486,28.252 88.225 C 28.218 87.964,28.176 87.712,28.158 87.667 C 28.141 87.621,28.138 87.522,28.151 87.446 C 28.164 87.370,28.113 87.347,28.038 87.393 C 27.674 87.618,27.493 87.158,27.469 85.947 C 27.455 85.223,27.371 84.667,27.277 84.667 C 27.186 84.667,27.160 84.618,27.220 84.558 C 27.279 84.498,27.198 84.355,27.039 84.238 C 26.565 83.892,26.603 75.698,27.081 75.170 C 27.337 74.886,27.421 74.524,27.457 73.550 C 27.495 72.487,27.567 72.218,27.927 71.791 C 28.160 71.514,28.339 71.128,28.324 70.935 C 28.276 70.322,28.327 70.167,28.576 70.167 C 28.726 70.167,28.858 69.930,28.922 69.542 C 28.979 69.198,29.070 68.804,29.123 68.667 C 29.176 68.529,29.208 68.360,29.193 68.292 C 29.179 68.223,29.279 68.167,29.417 68.167 C 29.554 68.167,29.667 68.064,29.667 67.939 C 29.667 67.814,29.833 67.500,30.036 67.242 C 30.240 66.983,30.422 66.667,30.440 66.539 C 30.510 66.063,30.664 65.833,30.911 65.833 C 31.053 65.833,31.167 65.689,31.167 65.511 C 31.167 65.334,31.316 65.142,31.500 65.083 C 31.683 65.025,31.882 64.777,31.943 64.531 C 32.004 64.285,32.180 63.971,32.334 63.833 C 32.488 63.696,32.707 63.408,32.821 63.194 C 32.934 62.980,33.070 62.848,33.123 62.901 C 33.265 63.042,33.679 62.654,33.571 62.481 C 33.521 62.399,33.676 62.258,33.917 62.167 C 34.157 62.075,34.310 61.930,34.257 61.845 C 34.152 61.675,36.616 59.889,36.858 59.959 C 36.940 59.983,37.092 59.814,37.197 59.584 C 37.301 59.355,37.482 59.167,37.598 59.167 C 37.714 59.167,37.960 58.975,38.144 58.741 C 38.328 58.508,38.521 58.320,38.572 58.325 C 39.181 58.380,39.472 58.291,39.541 58.028 C 39.585 57.860,39.725 57.714,39.852 57.703 C 39.979 57.693,40.328 57.669,40.626 57.650 C 41.020 57.625,41.158 57.542,41.126 57.350 C 41.093 57.145,41.306 57.048,42.039 56.932 C 42.715 56.825,43.021 56.695,43.087 56.488 C 43.155 56.275,43.412 56.176,44.048 56.118 C 45.174 56.017,45.502 55.933,45.638 55.713 C 45.823 55.417,55.164 55.197,56.212 55.465 M254.209 76.250 C 254.211 76.617,254.245 76.747,254.285 76.540 C 254.324 76.332,254.323 76.032,254.281 75.873 C 254.239 75.714,254.207 75.883,254.209 76.250 " stroke="none" fill="#0474fc" fill-rule="evenodd"></path><path id="path1" d="M282.667 0.167 C 282.667 0.258,282.448 0.333,282.180 0.333 C 281.477 0.333,281.167 0.492,281.167 0.851 C 281.167 1.060,281.049 1.167,280.818 1.167 C 280.615 1.167,280.434 1.300,280.386 1.485 C 280.340 1.659,280.159 1.840,279.985 1.886 C 279.804 1.933,279.667 2.114,279.667 2.306 C 279.667 2.529,279.540 2.662,279.292 2.697 C 278.980 2.741,278.908 2.869,278.865 3.458 C 278.824 4.031,278.752 4.167,278.490 4.167 C 278.201 4.167,278.167 4.289,278.167 5.333 C 278.167 6.247,278.114 6.500,277.923 6.500 C 277.346 6.500,277.318 7.035,277.368 17.061 C 277.408 25.108,277.459 27.000,277.644 27.223 C 277.854 27.475,277.365 27.499,271.227 27.540 L 264.583 27.583 264.530 27.958 C 264.485 28.276,264.375 28.333,263.806 28.333 C 263.286 28.333,263.117 28.405,263.052 28.651 C 263.007 28.826,262.826 29.007,262.651 29.052 C 262.471 29.100,262.333 29.281,262.333 29.473 C 262.333 29.696,262.206 29.828,261.958 29.863 C 261.647 29.908,261.575 30.036,261.532 30.625 C 261.491 31.198,261.419 31.333,261.157 31.333 C 260.867 31.333,260.833 31.456,260.833 32.500 C 260.833 33.434,260.783 33.667,260.579 33.667 C 259.930 33.667,259.825 35.470,260.458 35.748 C 260.806 35.900,260.833 36.018,260.833 37.373 C 260.833 38.689,260.864 38.833,261.145 38.833 C 261.380 38.833,261.484 38.997,261.562 39.489 C 261.635 39.941,261.770 40.177,262.000 40.250 C 262.183 40.308,262.333 40.501,262.333 40.678 C 262.333 40.855,262.447 41.000,262.587 41.000 C 262.726 41.000,262.926 41.188,263.030 41.417 C 263.135 41.646,263.349 41.833,263.507 41.833 C 263.665 41.833,263.831 41.972,263.875 42.142 C 263.931 42.357,264.177 42.486,264.682 42.566 C 265.081 42.630,265.549 42.810,265.721 42.966 C 266.001 43.220,266.642 43.255,271.726 43.298 L 277.417 43.345 277.365 73.964 C 277.310 106.679,277.338 108.656,277.851 108.790 C 278.144 108.866,278.167 109.062,278.167 111.497 C 278.167 113.869,278.199 114.162,278.500 114.545 C 278.735 114.845,278.833 115.222,278.833 115.829 C 278.833 116.780,279.050 117.333,279.423 117.333 C 279.601 117.333,279.667 117.536,279.667 118.083 C 279.667 118.715,279.718 118.833,279.990 118.833 C 280.252 118.833,280.324 118.969,280.365 119.542 C 280.408 120.131,280.480 120.259,280.792 120.303 C 281.116 120.349,281.167 120.456,281.167 121.095 C 281.167 121.708,281.220 121.833,281.481 121.833 C 281.711 121.833,281.827 121.996,281.909 122.435 C 281.983 122.831,282.132 123.066,282.344 123.121 C 282.549 123.175,282.667 123.350,282.667 123.603 C 282.667 123.847,282.764 124.000,282.920 124.000 C 283.060 124.000,283.259 124.188,283.364 124.417 C 283.468 124.646,283.691 124.833,283.860 124.833 C 284.055 124.833,284.167 124.954,284.167 125.163 C 284.167 125.377,284.314 125.531,284.583 125.598 C 284.844 125.664,285.000 125.821,285.000 126.018 C 285.000 126.239,285.119 126.333,285.397 126.333 C 285.650 126.333,285.825 126.451,285.879 126.656 C 285.934 126.868,286.169 127.017,286.565 127.091 C 287.004 127.173,287.167 127.289,287.167 127.519 C 287.167 127.767,287.289 127.833,287.746 127.833 C 288.180 127.833,288.394 127.938,288.599 128.250 C 288.755 128.488,289.031 128.667,289.243 128.667 C 289.448 128.667,289.751 128.817,289.917 129.000 C 290.084 129.185,290.430 129.333,290.692 129.333 C 290.993 129.333,291.167 129.421,291.167 129.572 C 291.167 129.855,291.426 129.942,292.708 130.093 C 293.235 130.154,293.667 130.271,293.667 130.353 C 293.667 130.434,295.554 130.500,297.895 130.500 L 302.123 130.500 302.226 129.875 C 302.361 129.060,302.361 116.606,302.226 115.790 C 302.131 115.217,302.068 115.155,301.483 115.061 C 301.061 114.994,300.809 114.852,300.743 114.646 C 300.675 114.432,300.487 114.333,300.144 114.333 C 299.642 114.333,299.167 114.014,299.167 113.679 C 299.167 113.580,299.017 113.500,298.833 113.500 C 298.611 113.500,298.500 113.389,298.500 113.167 C 298.500 112.922,298.389 112.833,298.083 112.833 C 297.750 112.833,297.667 112.750,297.667 112.417 C 297.667 112.115,297.577 112.000,297.343 112.000 C 297.081 112.000,297.009 111.864,296.968 111.292 C 296.925 110.703,296.853 110.574,296.542 110.530 C 296.200 110.482,296.167 110.387,296.167 109.473 C 296.167 108.609,296.120 108.457,295.833 108.382 C 295.501 108.295,295.500 108.154,295.500 75.814 L 295.500 43.333 301.875 43.340 L 308.250 43.347 308.614 43.919 C 308.814 44.233,309.029 44.832,309.092 45.250 C 309.166 45.741,309.317 46.069,309.520 46.177 C 309.730 46.290,309.833 46.527,309.833 46.900 C 309.833 47.214,309.988 47.651,310.189 47.907 C 310.384 48.155,310.581 48.693,310.628 49.102 C 310.683 49.597,310.815 49.901,311.022 50.012 C 311.243 50.130,311.333 50.364,311.333 50.819 C 311.333 51.287,311.429 51.523,311.688 51.695 C 311.952 51.870,312.064 52.157,312.128 52.820 C 312.192 53.494,312.286 53.729,312.515 53.789 C 312.732 53.846,312.830 54.059,312.866 54.559 C 312.908 55.130,312.982 55.259,313.292 55.303 C 313.628 55.351,313.667 55.450,313.667 56.263 C 313.667 56.964,313.742 57.235,314.000 57.455 C 314.183 57.612,314.333 57.943,314.333 58.190 C 314.333 58.857,314.498 59.167,314.851 59.167 C 315.114 59.167,315.167 59.292,315.167 59.917 C 315.167 60.556,315.216 60.667,315.500 60.667 C 315.781 60.667,315.834 60.779,315.836 61.375 C 315.839 62.371,315.981 62.789,316.349 62.886 C 316.598 62.951,316.667 63.120,316.667 63.667 C 316.667 64.224,316.734 64.382,317.000 64.452 C 317.258 64.519,317.333 64.679,317.333 65.162 C 317.333 65.595,317.460 65.921,317.750 66.234 C 318.065 66.574,318.167 66.865,318.167 67.425 C 318.167 68.048,318.218 68.167,318.490 68.167 C 318.752 68.167,318.824 68.302,318.865 68.875 C 318.905 69.422,319.002 69.621,319.292 69.748 C 319.619 69.892,319.667 70.036,319.667 70.888 C 319.667 71.724,319.715 71.877,320.000 71.952 C 320.233 72.013,320.333 72.179,320.333 72.506 C 320.333 73.190,320.495 73.500,320.851 73.500 C 321.118 73.500,321.167 73.627,321.167 74.320 C 321.167 75.295,321.287 75.667,321.601 75.667 C 321.749 75.667,321.833 75.852,321.833 76.178 C 321.833 76.811,322.100 77.333,322.423 77.333 C 322.601 77.333,322.667 77.536,322.667 78.083 C 322.667 78.722,322.716 78.833,323.000 78.833 C 323.252 78.833,323.334 78.945,323.335 79.292 C 323.339 80.350,323.537 81.000,323.855 81.000 C 324.113 81.000,324.167 81.128,324.167 81.739 C 324.167 82.315,324.236 82.499,324.479 82.577 C 324.706 82.649,324.821 82.900,324.901 83.499 C 324.971 84.027,325.123 84.401,325.327 84.544 C 325.540 84.692,325.662 85.010,325.697 85.508 C 325.742 86.131,325.810 86.259,326.125 86.303 C 326.449 86.349,326.500 86.456,326.500 87.095 C 326.500 87.722,326.550 87.833,326.833 87.833 C 327.126 87.833,327.167 87.944,327.167 88.738 C 327.167 89.603,327.434 90.167,327.845 90.167 C 327.930 90.167,328.000 90.504,328.000 90.917 C 328.000 91.548,328.051 91.667,328.324 91.667 C 328.585 91.667,328.657 91.802,328.699 92.375 C 328.741 92.964,328.813 93.092,329.125 93.137 C 329.469 93.186,329.500 93.277,329.500 94.262 C 329.500 95.222,329.535 95.333,329.833 95.333 C 330.117 95.333,330.167 95.444,330.167 96.080 C 330.167 96.738,330.216 96.839,330.583 96.932 C 330.947 97.023,331.000 97.127,331.000 97.754 C 331.000 98.624,331.128 99.000,331.425 99.000 C 331.573 99.000,331.666 99.267,331.699 99.792 C 331.743 100.467,331.805 100.591,332.125 100.637 C 332.449 100.683,332.500 100.789,332.500 101.428 C 332.500 102.050,332.552 102.167,332.825 102.167 C 333.108 102.167,333.157 102.303,333.200 103.208 C 333.243 104.104,333.303 104.273,333.625 104.415 C 333.930 104.548,334.000 104.713,334.000 105.290 C 334.000 105.873,334.056 106.000,334.312 106.000 C 334.566 106.000,334.640 106.160,334.707 106.864 C 334.766 107.477,334.894 107.812,335.145 108.016 C 335.401 108.223,335.500 108.491,335.500 108.974 C 335.500 109.492,335.574 109.668,335.824 109.747 C 336.065 109.824,336.161 110.030,336.199 110.550 C 336.241 111.130,336.314 111.259,336.625 111.303 C 336.966 111.352,337.000 111.446,337.000 112.361 C 337.000 113.224,337.047 113.377,337.333 113.452 C 337.567 113.513,337.667 113.679,337.667 114.006 C 337.667 114.690,337.828 115.000,338.184 115.000 C 338.447 115.000,338.500 115.125,338.500 115.750 C 338.500 116.280,338.568 116.500,338.732 116.500 C 339.025 116.500,339.108 116.719,339.254 117.891 C 339.350 118.661,339.429 118.833,339.686 118.833 C 339.947 118.833,340.000 118.960,340.000 119.583 C 340.000 120.272,340.034 120.333,340.417 120.333 C 340.818 120.333,340.833 120.372,340.833 121.417 C 340.833 122.379,340.870 122.500,341.158 122.500 C 341.426 122.500,341.490 122.636,341.533 123.292 C 341.576 123.967,341.638 124.091,341.958 124.137 C 342.276 124.182,342.333 124.292,342.333 124.861 C 342.333 125.391,342.403 125.549,342.667 125.618 C 342.851 125.667,343.000 125.846,343.000 126.019 C 343.000 126.243,343.120 126.333,343.417 126.333 C 343.792 126.333,343.833 126.400,343.833 127.004 C 343.833 127.566,343.901 127.701,344.250 127.833 C 344.479 127.920,344.667 128.100,344.667 128.231 C 344.667 128.381,344.917 128.513,345.333 128.583 C 345.781 128.659,346.000 128.782,346.000 128.958 C 346.000 129.302,346.975 130.167,347.363 130.167 C 347.530 130.167,347.667 130.242,347.667 130.333 C 347.667 130.441,349.750 130.500,353.583 130.500 C 357.085 130.500,359.500 130.437,359.500 130.346 C 359.500 130.262,359.768 130.104,360.095 129.996 C 360.422 129.888,360.728 129.702,360.774 129.582 C 360.820 129.462,361.035 129.319,361.251 129.265 C 361.467 129.210,361.692 129.016,361.750 128.833 C 361.808 128.650,361.965 128.500,362.099 128.500 C 362.232 128.500,362.413 128.313,362.500 128.083 C 362.587 127.854,362.765 127.667,362.895 127.667 C 363.167 127.667,363.333 127.314,363.333 126.736 C 363.333 126.418,363.420 126.333,363.750 126.333 C 364.047 126.333,364.167 126.243,364.167 126.019 C 364.167 125.846,364.316 125.667,364.500 125.618 C 364.764 125.549,364.833 125.391,364.833 124.861 C 364.833 124.292,364.890 124.182,365.208 124.137 C 365.527 124.091,365.591 123.967,365.633 123.309 C 365.672 122.706,365.755 122.516,366.008 122.450 C 366.286 122.377,366.333 122.216,366.333 121.349 C 366.333 120.377,366.351 120.333,366.750 120.333 C 367.133 120.333,367.167 120.272,367.167 119.583 C 367.167 118.959,367.219 118.833,367.482 118.833 C 367.887 118.833,368.000 118.521,368.000 117.403 C 368.000 116.611,368.041 116.500,368.333 116.500 C 368.617 116.500,368.667 116.389,368.667 115.762 C 368.667 115.123,368.717 115.016,369.042 114.970 C 369.352 114.926,369.425 114.797,369.467 114.225 C 369.505 113.706,369.598 113.513,369.842 113.449 C 370.118 113.377,370.167 113.215,370.167 112.361 C 370.167 111.446,370.200 111.352,370.542 111.303 C 370.855 111.259,370.925 111.131,370.969 110.523 C 371.008 109.970,371.098 109.776,371.344 109.712 C 371.620 109.640,371.667 109.476,371.667 108.575 C 371.667 107.611,371.698 107.519,372.042 107.470 C 372.353 107.426,372.425 107.297,372.468 106.708 C 372.509 106.136,372.581 106.000,372.843 106.000 C 373.120 106.000,373.167 105.881,373.167 105.167 C 373.167 104.531,373.227 104.333,373.421 104.333 C 373.744 104.333,374.000 103.666,374.000 102.822 C 374.000 102.278,374.056 102.167,374.333 102.167 C 374.617 102.167,374.667 102.056,374.667 101.428 C 374.667 100.789,374.717 100.683,375.042 100.637 C 375.375 100.589,375.422 100.474,375.467 99.607 C 375.509 98.804,375.575 98.616,375.842 98.546 C 376.100 98.479,376.167 98.314,376.167 97.749 C 376.167 97.128,376.220 97.023,376.583 96.932 C 376.948 96.840,377.000 96.736,377.000 96.100 C 377.000 95.512,377.064 95.355,377.333 95.285 C 377.621 95.210,377.667 95.058,377.667 94.182 C 377.667 93.210,377.684 93.167,378.083 93.167 C 378.466 93.167,378.500 93.106,378.500 92.417 C 378.500 91.778,378.549 91.667,378.833 91.667 C 379.122 91.667,379.167 91.556,379.167 90.833 C 379.167 90.198,379.227 90.000,379.421 90.000 C 379.743 90.000,380.000 89.334,380.000 88.501 C 380.000 87.960,380.060 87.848,380.375 87.803 C 380.685 87.759,380.759 87.630,380.800 87.059 C 380.838 86.539,380.931 86.347,381.175 86.283 C 381.451 86.211,381.500 86.049,381.500 85.200 C 381.500 84.275,381.530 84.195,381.917 84.098 C 382.272 84.009,382.333 83.898,382.333 83.341 C 382.333 82.836,382.408 82.665,382.667 82.583 C 382.934 82.498,383.000 82.331,383.000 81.739 C 383.000 81.188,383.065 81.000,383.254 81.000 C 383.577 81.000,383.833 80.333,383.833 79.489 C 383.833 78.944,383.890 78.833,384.167 78.833 C 384.451 78.833,384.500 78.722,384.500 78.083 C 384.500 77.536,384.566 77.333,384.744 77.333 C 385.067 77.333,385.333 76.811,385.333 76.178 C 385.333 75.889,385.478 75.522,385.667 75.333 C 385.900 75.100,386.000 74.778,386.000 74.262 C 386.000 73.623,386.051 73.516,386.375 73.470 C 386.685 73.426,386.759 73.297,386.800 72.725 C 386.838 72.206,386.931 72.013,387.175 71.949 C 387.451 71.877,387.500 71.715,387.500 70.867 C 387.500 69.942,387.530 69.862,387.917 69.765 C 388.276 69.675,388.333 69.567,388.333 68.981 C 388.333 68.442,388.402 68.284,388.667 68.215 C 388.935 68.145,389.000 67.988,389.000 67.406 C 389.000 66.867,389.106 66.570,389.417 66.234 C 389.711 65.916,389.833 65.596,389.833 65.142 C 389.833 64.611,389.891 64.500,390.167 64.500 C 390.452 64.500,390.500 64.389,390.500 63.734 C 390.500 63.121,390.563 62.952,390.818 62.886 C 391.186 62.789,391.328 62.371,391.331 61.375 C 391.333 60.779,391.386 60.667,391.667 60.667 C 391.950 60.667,392.000 60.556,392.000 59.928 C 392.000 59.289,392.051 59.183,392.375 59.137 C 392.682 59.093,392.759 58.962,392.801 58.417 C 392.833 57.996,392.973 57.656,393.179 57.497 C 393.399 57.327,393.541 56.951,393.612 56.349 C 393.692 55.675,393.794 55.436,394.026 55.375 C 394.266 55.312,394.333 55.134,394.333 54.564 C 394.333 53.956,394.387 53.833,394.651 53.833 C 394.905 53.833,394.991 53.669,395.081 53.013 C 395.148 52.532,395.326 52.074,395.514 51.904 C 395.733 51.706,395.833 51.393,395.833 50.910 C 395.833 50.359,395.902 50.188,396.149 50.123 C 396.367 50.066,396.500 49.825,396.583 49.336 C 396.648 48.948,396.844 48.489,397.018 48.316 C 397.243 48.090,397.333 47.762,397.333 47.167 C 397.333 46.462,397.382 46.333,397.647 46.333 C 397.960 46.333,398.160 45.915,398.164 45.248 C 398.166 45.064,398.317 44.820,398.500 44.705 C 398.743 44.554,398.833 44.317,398.833 43.832 C 398.833 43.374,398.906 43.167,399.066 43.167 C 399.352 43.167,399.457 42.905,399.599 41.835 C 399.660 41.376,399.775 41.000,399.855 41.000 C 399.935 41.000,400.000 39.012,400.000 36.583 C 400.000 33.750,399.940 32.167,399.833 32.167 C 399.742 32.167,399.667 32.025,399.667 31.853 C 399.667 31.680,399.479 31.415,399.250 31.265 C 399.021 31.115,398.833 30.882,398.833 30.746 C 398.833 30.611,398.692 30.500,398.519 30.500 C 398.346 30.500,398.167 30.351,398.118 30.167 C 398.066 29.967,397.891 29.833,397.682 29.833 C 397.452 29.833,397.333 29.727,397.333 29.519 C 397.333 29.203,396.914 29.007,396.228 29.002 C 396.014 29.001,395.838 28.867,395.785 28.667 C 395.653 28.163,388.518 28.144,388.387 28.648 C 388.330 28.864,388.095 28.996,387.635 29.069 C 387.163 29.144,386.941 29.273,386.880 29.505 C 386.831 29.692,386.653 29.833,386.465 29.833 C 386.281 29.833,386.099 29.974,386.052 30.151 C 386.007 30.326,385.826 30.507,385.651 30.552 C 385.466 30.601,385.333 30.781,385.333 30.984 C 385.333 31.180,385.226 31.333,385.089 31.333 C 384.786 31.333,384.500 31.845,384.500 32.386 C 384.500 32.651,384.386 32.824,384.175 32.879 C 383.903 32.951,383.842 33.137,383.800 34.024 C 383.755 34.978,383.713 35.089,383.375 35.137 C 383.051 35.183,383.000 35.289,383.000 35.928 C 383.000 36.556,382.950 36.667,382.667 36.667 C 382.383 36.667,382.333 36.778,382.333 37.417 C 382.333 37.964,382.267 38.167,382.089 38.167 C 381.729 38.167,381.500 38.712,381.500 39.572 C 381.500 40.222,381.451 40.333,381.167 40.333 C 380.885 40.333,380.833 40.444,380.833 41.057 C 380.833 41.666,380.768 41.810,380.417 41.970 C 380.039 42.142,380.000 42.254,380.000 43.163 C 380.000 44.035,379.959 44.167,379.686 44.167 C 379.442 44.167,379.346 44.331,379.261 44.899 C 379.182 45.431,379.062 45.655,378.826 45.717 C 378.547 45.790,378.500 45.950,378.500 46.818 C 378.500 47.599,378.444 47.833,378.256 47.833 C 377.933 47.833,377.667 48.355,377.667 48.989 C 377.667 49.389,377.594 49.500,377.333 49.500 C 377.035 49.500,377.000 49.611,377.000 50.572 C 377.000 51.556,376.969 51.648,376.625 51.697 C 376.315 51.741,376.241 51.870,376.200 52.441 C 376.162 52.961,376.069 53.153,375.825 53.217 C 375.545 53.290,375.500 53.452,375.500 54.389 C 375.500 55.390,375.470 55.481,375.125 55.530 C 374.813 55.574,374.741 55.703,374.699 56.292 C 374.657 56.864,374.585 57.000,374.324 57.000 C 374.037 57.000,374.000 57.122,374.000 58.072 C 374.000 59.056,373.969 59.148,373.625 59.197 C 373.315 59.241,373.241 59.370,373.200 59.941 C 373.162 60.461,373.069 60.653,372.825 60.717 C 372.545 60.790,372.500 60.952,372.500 61.889 C 372.500 62.890,372.470 62.981,372.125 63.030 C 371.813 63.074,371.741 63.203,371.699 63.792 C 371.657 64.364,371.585 64.500,371.324 64.500 C 371.052 64.500,371.000 64.618,371.000 65.242 C 371.000 65.812,370.903 66.082,370.583 66.402 C 370.261 66.724,370.167 66.990,370.167 67.576 C 370.167 68.222,370.118 68.333,369.833 68.333 C 369.549 68.333,369.500 68.444,369.500 69.083 C 369.500 69.631,369.434 69.833,369.256 69.833 C 368.898 69.833,368.667 70.377,368.667 71.220 C 368.667 71.821,368.604 71.978,368.333 72.048 C 368.068 72.118,368.000 72.276,368.000 72.822 C 368.000 73.401,367.935 73.533,367.583 73.667 C 367.203 73.811,367.167 73.911,367.167 74.829 C 367.167 75.722,367.130 75.833,366.833 75.833 C 366.550 75.833,366.500 75.944,366.500 76.572 C 366.500 77.211,366.449 77.317,366.125 77.363 C 365.793 77.411,365.744 77.526,365.700 78.371 C 365.664 79.066,365.568 79.384,365.347 79.539 C 365.180 79.655,364.991 80.062,364.926 80.443 C 364.845 80.926,364.713 81.159,364.488 81.218 C 364.239 81.283,364.167 81.450,364.167 81.965 C 364.167 82.481,364.095 82.647,363.844 82.712 C 363.587 82.780,363.497 83.003,363.406 83.810 C 363.317 84.594,363.220 84.847,362.979 84.923 C 362.737 85.000,362.667 85.185,362.667 85.742 C 362.667 86.301,362.598 86.479,362.359 86.542 C 362.045 86.624,361.833 87.280,361.833 88.168 C 361.833 88.488,361.732 88.654,361.500 88.715 C 361.237 88.784,361.167 88.942,361.167 89.465 C 361.167 89.969,361.093 90.147,360.859 90.208 C 360.533 90.293,360.333 90.951,360.333 91.937 C 360.333 92.389,360.267 92.500,360.000 92.500 C 359.716 92.500,359.667 92.611,359.667 93.250 C 359.667 93.872,359.613 94.000,359.354 94.000 C 359.020 94.000,358.833 94.569,358.833 95.585 C 358.833 95.988,358.747 96.150,358.500 96.215 C 358.234 96.285,358.167 96.442,358.167 97.000 C 358.167 97.545,358.097 97.716,357.851 97.780 C 357.539 97.862,357.333 98.454,357.333 99.269 C 357.333 99.486,357.183 99.758,357.000 99.872 C 356.751 100.027,356.667 100.261,356.667 100.790 C 356.667 101.315,356.600 101.500,356.413 101.500 C 356.142 101.500,355.833 102.135,355.833 102.693 C 355.833 102.879,355.683 103.221,355.500 103.455 C 355.282 103.731,355.167 104.131,355.167 104.606 C 355.167 105.147,355.101 105.333,354.913 105.333 C 354.623 105.333,354.336 105.973,354.327 106.636 C 354.324 106.882,354.137 107.308,353.912 107.583 L 353.502 108.083 353.501 107.634 C 353.500 107.381,353.360 107.088,353.179 106.961 C 352.976 106.818,352.838 106.493,352.804 106.076 C 352.760 105.539,352.680 105.407,352.375 105.363 C 352.046 105.317,352.000 105.213,352.000 104.514 C 352.000 103.930,351.911 103.638,351.667 103.417 C 351.463 103.232,351.333 102.903,351.333 102.571 C 351.333 101.811,351.183 101.500,350.816 101.500 C 350.553 101.500,350.500 101.375,350.500 100.750 C 350.500 100.111,350.451 100.000,350.167 100.000 C 349.877 100.000,349.833 99.889,349.833 99.156 C 349.833 98.219,349.615 97.667,349.244 97.667 C 349.069 97.667,349.000 97.472,349.000 96.984 C 349.000 96.442,348.932 96.284,348.667 96.215 C 348.402 96.146,348.333 95.987,348.331 95.439 C 348.328 94.429,348.174 94.000,347.814 94.000 C 347.553 94.000,347.500 93.873,347.500 93.250 C 347.500 92.611,347.451 92.500,347.167 92.500 C 346.899 92.500,346.833 92.389,346.833 91.938 C 346.833 90.969,346.643 90.348,346.313 90.244 C 346.075 90.168,346.000 89.984,346.000 89.473 C 346.000 88.942,345.930 88.784,345.667 88.715 C 345.408 88.647,345.333 88.488,345.333 88.000 C 345.333 87.514,345.239 87.310,344.917 87.099 C 344.557 86.863,344.500 86.702,344.500 85.924 C 344.500 85.169,344.446 85.005,344.167 84.917 C 343.936 84.843,343.833 84.664,343.833 84.336 C 343.833 83.644,343.673 83.333,343.316 83.333 C 343.044 83.333,343.000 83.205,343.000 82.418 C 343.000 81.683,342.934 81.462,342.667 81.295 C 342.468 81.171,342.333 80.906,342.333 80.640 C 342.333 79.976,342.169 79.667,341.816 79.667 C 341.553 79.667,341.500 79.541,341.500 78.917 C 341.500 78.278,341.451 78.167,341.167 78.167 C 340.880 78.167,340.833 78.055,340.831 77.375 C 340.828 76.264,340.684 75.833,340.314 75.833 C 340.053 75.833,340.000 75.707,340.000 75.083 C 340.000 74.394,339.966 74.333,339.583 74.333 C 339.181 74.333,339.167 74.295,339.167 73.234 C 339.167 72.285,339.122 72.124,338.842 72.051 C 338.598 71.987,338.505 71.794,338.467 71.275 C 338.425 70.703,338.352 70.574,338.042 70.530 C 337.700 70.482,337.667 70.387,337.667 69.473 C 337.667 68.609,337.620 68.457,337.333 68.382 C 337.064 68.311,337.000 68.154,337.000 67.564 C 337.000 66.896,336.964 66.833,336.583 66.833 C 336.186 66.833,336.167 66.788,336.167 65.843 C 336.167 65.054,336.101 64.806,335.845 64.627 C 335.642 64.485,335.504 64.160,335.470 63.743 C 335.427 63.206,335.347 63.073,335.042 63.030 C 334.717 62.984,334.667 62.877,334.667 62.238 C 334.667 61.617,334.615 61.500,334.341 61.500 C 334.059 61.500,334.009 61.363,333.966 60.458 C 333.924 59.563,333.864 59.394,333.542 59.252 C 333.237 59.119,333.167 58.954,333.167 58.377 C 333.167 57.778,333.115 57.667,332.833 57.667 C 332.545 57.667,332.500 57.556,332.500 56.847 C 332.500 55.813,332.380 55.500,331.982 55.500 C 331.719 55.500,331.667 55.375,331.667 54.750 C 331.667 54.111,331.617 54.000,331.333 54.000 C 331.066 54.000,331.000 53.889,331.000 53.437 C 331.000 52.469,330.810 51.848,330.480 51.744 C 330.235 51.666,330.167 51.482,330.167 50.905 C 330.167 50.285,330.115 50.167,329.843 50.167 C 329.581 50.167,329.509 50.031,329.468 49.458 C 329.425 48.869,329.353 48.741,329.042 48.697 C 328.697 48.648,328.667 48.557,328.667 47.556 C 328.667 46.619,328.622 46.457,328.342 46.384 C 328.098 46.320,328.005 46.128,327.967 45.608 C 327.925 45.037,327.852 44.907,327.542 44.863 C 327.197 44.814,327.167 44.723,327.167 43.738 C 327.167 42.706,327.151 42.667,326.750 42.667 C 326.367 42.667,326.333 42.606,326.333 41.917 C 326.333 41.284,326.283 41.167,326.008 41.167 C 325.721 41.167,325.676 41.030,325.633 40.042 C 325.588 39.019,325.549 38.912,325.208 38.863 C 324.884 38.817,324.833 38.711,324.833 38.072 C 324.833 37.444,324.783 37.333,324.500 37.333 C 324.212 37.333,324.167 37.222,324.167 36.514 C 324.167 35.479,324.046 35.167,323.649 35.167 C 323.387 35.167,323.333 35.042,323.333 34.436 C 323.333 33.854,323.268 33.688,323.010 33.621 C 322.765 33.557,322.675 33.363,322.635 32.810 C 322.592 32.202,322.522 32.075,322.208 32.030 C 321.884 31.984,321.833 31.877,321.833 31.238 C 321.833 30.611,321.783 30.500,321.500 30.500 C 321.278 30.500,321.167 30.389,321.167 30.167 C 321.167 29.922,321.056 29.833,320.750 29.833 C 320.417 29.833,320.333 29.750,320.333 29.417 C 320.333 29.111,320.244 29.000,320.000 29.000 C 319.778 29.000,319.667 28.889,319.667 28.667 C 319.667 28.422,319.556 28.333,319.250 28.333 C 318.952 28.333,318.833 28.243,318.833 28.018 C 318.833 27.503,318.772 27.500,306.611 27.497 C 299.179 27.496,295.008 27.437,295.167 27.337 C 295.383 27.200,295.423 25.862,295.467 17.298 C 295.521 6.699,295.492 6.010,294.987 5.878 C 294.726 5.810,294.667 5.643,294.667 4.981 C 294.667 4.286,294.619 4.167,294.343 4.167 C 294.081 4.167,294.009 4.031,293.968 3.458 C 293.925 2.869,293.853 2.741,293.542 2.697 C 293.270 2.658,293.167 2.532,293.167 2.238 C 293.167 1.944,293.075 1.833,292.833 1.833 C 292.611 1.833,292.500 1.722,292.500 1.500 C 292.500 1.258,292.389 1.167,292.095 1.167 C 291.802 1.167,291.675 1.063,291.637 0.792 C 291.592 0.480,291.464 0.408,290.875 0.365 C 290.485 0.337,290.167 0.243,290.167 0.157 C 290.167 0.063,288.653 0.000,286.417 0.000 C 284.028 0.000,282.667 0.060,282.667 0.167 " stroke="none" fill="#2c2c44" fill-rule="evenodd"></path><path id="path2" d="" stroke="none" fill="#1850100" fill-rule="evenodd"></path><path id="path3" d="" stroke="none" fill="#1850100" fill-rule="evenodd"></path><path id="path4" d="" stroke="none" fill="#1850100" fill-rule="evenodd"></path></g></svg>